<?xml version="1.0" encoding="utf-8"?>
<!-- Generator: Adobe Illustrator 16.0.0, SVG Export Plug-In . SVG Version: 6.00 Build 0)  -->
<!DOCTYPE svg PUBLIC "-//W3C//DTD SVG 1.1//EN" "http://www.w3.org/Graphics/SVG/1.1/DTD/svg11.dtd">
<svg version="1.1" id="圖層_1" xmlns="http://www.w3.org/2000/svg" xmlns:xlink="http://www.w3.org/1999/xlink" x="0px" y="0px"
	 width="92.485px" height="118.165px" viewBox="0 0 92.485 118.165" enable-background="new 0 0 92.485 118.165"
	 xml:space="preserve">
<path fill-rule="evenodd" clip-rule="evenodd" d="M25.07,40.316c0,8.773,0.005,17.546-0.004,26.32
	c-0.002,1.673-0.084,3.29-1.807,4.297c-3.053,1.784-6.324,0.012-6.41-3.639c-0.095-4.066-0.003-8.138-0.006-12.207
	c-0.001-1.017-0.079-2.033-0.069-3.049c0.013-1.313-0.592-1.656-1.813-1.352c-3.872,0.964-6.562,4.281-6.581,8.288
	c-0.029,5.85,0.105,11.701-0.039,17.547c-0.134,5.453,2.542,9.202,6.637,12.353c2.857,2.198,5.74,4.425,8.264,6.982
	c4.967,5.032,6.131,11.509,6.077,18.264c-0.017,2.159-2.168,3.964-4.175,3.933c-2.233-0.035-3.726-1.581-4.01-4.03
	c-0.271-2.327-0.44-4.69-0.988-6.957c-1.246-5.158-5.274-8.081-9.322-10.869C3.727,91.308-0.178,84.805,0.006,76.009
	c0.124-5.91-0.036-11.826,0.098-17.736c0.19-8.478,6.681-15.307,15.151-15.962c1.713-0.133,1.532-1.137,1.534-2.208
	c0.011-8.964-0.016-17.929,0.033-26.894c0.029-5.404,2.284-9.498,7.253-11.971c7.3-3.634,14.822,1.357,16.811,6.802
	c0.657,1.795,0.956,3.807,0.993,5.728c0.12,6.1,0.101,12.206-0.003,18.307c-0.03,1.767,0.529,2.206,2.203,1.974
	c3.496-0.485,6.811,0.004,9.806,2.092c0.407,0.284,1.393,0.241,1.809-0.063c5.314-3.888,13.483-2.561,17.284,2.931
	c0.27,0.389,1.408,0.621,1.846,0.382c7.852-4.292,17.814,2.068,17.656,11.167c-0.196,11.439,0.045,22.884,0.001,34.327
	c-0.055,14.352-9.271,26.801-22.943,31.319c-3.664,1.212-7.69,1.569-11.581,1.793c-5.197,0.299-10.424,0.11-15.637,0.08
	c-2.214-0.014-3.697-1.224-4.318-3.338c-0.477-1.62,0.177-3.39,1.883-4.38c0.769-0.445,1.794-0.61,2.707-0.62
	c4.386-0.047,8.772-0.038,13.158,0.028c5.881,0.089,11.567-0.719,16.569-4.029c6.756-4.472,11.295-10.617,11.62-18.869
	c0.415-10.539,0.193-21.103,0.237-31.654c0.007-1.715,0.042-3.436-0.073-5.145c-0.139-2.058-1.731-3.567-3.685-3.667
	c-2.265-0.116-4.041,1.183-4.49,3.25c-0.188,0.864-0.345,1.749-0.667,2.565c-0.764,1.93-2.212,2.679-4.423,2.408
	c-1.784-0.219-3.048-1.454-3.264-3.401c-0.139-1.253-0.113-2.533-0.063-3.796c0.12-3.01-1.623-5.134-4.324-5.187
	c-2.775-0.055-4.324,1.677-4.314,4.82c0.004,1.145,0.017,2.29-0.008,3.433c-0.052,2.377-1.9,4.182-4.246,4.168
	c-2.424-0.015-3.873-1.55-4.003-4.094c-0.099-1.941-0.006-3.977-0.58-5.786c-0.707-2.225-2.673-2.982-4.917-2.492
	c-1.566,0.342-3.076,2.242-3.178,4.099c-0.08,1.458-0.041,2.923-0.109,4.382c-0.123,2.615-1.524,3.901-4.144,3.862
	c-2.263-0.034-4.03-1.768-4.054-4.159c-0.052-5.404-0.031-10.809-0.032-16.213c-0.002-6.994,0.056-13.989-0.047-20.981
	c-0.018-1.173-0.439-2.558-1.158-3.461c-1.933-2.428-5.885-1.575-6.886,1.378c-0.262,0.771-0.458,1.609-0.46,2.417
	c-0.032,8.9-0.02,17.799-0.02,26.699C25.042,40.316,25.056,40.316,25.07,40.316z"/>
</svg>
