<?xml version="1.0" encoding="utf-8"?>
<!-- Generator: Adobe Illustrator 16.0.0, SVG Export Plug-In . SVG Version: 6.00 Build 0)  -->
<!DOCTYPE svg PUBLIC "-//W3C//DTD SVG 1.1//EN" "http://www.w3.org/Graphics/SVG/1.1/DTD/svg11.dtd">
<svg version="1.1" id="圖層_1" xmlns="http://www.w3.org/2000/svg" xmlns:xlink="http://www.w3.org/1999/xlink" x="0px" y="0px"
	 width="327.026px" height="110.411px" viewBox="0 0 327.026 110.411" enable-background="new 0 0 327.026 110.411"
	 xml:space="preserve">
<g>
	<path fill-rule="evenodd" clip-rule="evenodd" fill="#FF0000" d="M26.508,26.534c0.598-0.942,0.797-1.188,0.924-1.466
		c1.383-3.003,3.234-5.653,5.607-7.976c1.02-0.998,2.01-2.166,2.576-3.449c0.531-1.207,0.811-2.711,0.635-4.008
		c-0.377-2.797-3.41-3.787-5.447-1.817c-0.85,0.821-1.412,1.99-1.939,3.081c-1.102,2.273-3.469,2.826-5.246,1.036
		c-0.652-0.657-1.096-1.567-1.496-2.427c-0.957-2.049-1.994-2.814-3.754-2.615c-1.787,0.203-3.039,1.498-3.449,3.515
		c-0.494,2.429,0.604,4.315,2.166,5.94c2.561,2.664,5.254,5.201,7.842,7.843C25.514,24.792,25.889,25.602,26.508,26.534z"/>
	<g>
		<g>
			<path d="M92.904,55.205V6.847h20.242v6.212h-11.434v13.883h9.042v6.213h-9.042v15.954h11.579v6.096H92.904z"/>
			<path d="M118.396,55.205V6.847h8.167v48.358H118.396z"/>
			<path d="M139.629,55.759c-2.178-0.02-3.962-0.869-5.352-2.552c-1.391-1.682-2.086-3.583-2.086-5.702
				c0-2.002,0.331-3.752,0.992-5.25c0.66-1.497,1.745-2.78,3.252-3.85s2.756-1.847,3.748-2.333c0.991-0.486,2.518-1.127,4.579-1.925
				c0.583-0.233,1.021-0.408,1.313-0.525v-2.887c0-1.556-0.18-2.693-0.54-3.413c-0.359-0.719-1.094-1.079-2.202-1.079
				c-1.808,0-2.731,1.264-2.771,3.792l-0.116,2.158l-7.817-0.292c0-0.117,0.005-0.331,0.015-0.642s0.015-0.515,0.015-0.613
				c0.253-3.616,1.327-6.271,3.223-7.962c1.896-1.691,4.604-2.538,8.123-2.538c3.402,0,5.926,0.924,7.569,2.771
				c1.643,1.848,2.464,4.462,2.464,7.846v15.779c0,2.645,0.214,5.532,0.643,8.663h-7.38c-0.447-2.255-0.729-3.947-0.846-5.075
				c-0.486,1.595-1.298,2.932-2.436,4.011S141.418,55.759,139.629,55.759z M142.75,49.43c0.622,0,1.239-0.233,1.853-0.7
				c0.612-0.467,1.103-0.943,1.473-1.429v-9.508c-4.045,2.236-6.066,4.774-6.066,7.613c0,1.245,0.237,2.227,0.714,2.946
				S141.875,49.43,142.75,49.43z"/>
			<path d="M160.28,15.218V8.334h8.195v6.884H160.28z M160.28,55.205V20.672h8.166v34.533H160.28z"/>
			<path d="M174.863,55.205V20.672h8.166v3.383c2.781-2.605,5.591-3.909,8.43-3.909c1.964,0,3.397,0.72,4.302,2.159
				s1.356,3.208,1.356,5.308v27.592h-8.167V29.422c0-1.089-0.155-1.896-0.467-2.421c-0.311-0.525-0.914-0.777-1.808-0.758
				c-1.012,0.02-2.227,0.544-3.646,1.575v27.388H174.863z"/>
			<path d="M213.625,55.759c-3.947,0-6.786-1.088-8.517-3.266c-1.731-2.178-2.596-5.396-2.596-9.654v-9.771
				c0-4.258,0.875-7.476,2.625-9.654s4.568-3.267,8.458-3.267c2.061,0,3.796,0.302,5.206,0.904c1.41,0.603,2.509,1.517,3.296,2.742
				c0.788,1.225,1.347,2.64,1.677,4.244c0.331,1.604,0.496,3.534,0.496,5.79v4.521h-13.649v5.192c0,0.719,0.004,1.279,0.015,1.677
				c0.009,0.399,0.043,0.88,0.102,1.444c0.059,0.564,0.15,1.002,0.277,1.313c0.126,0.312,0.296,0.627,0.51,0.948
				c0.214,0.321,0.496,0.55,0.847,0.686c0.35,0.136,0.758,0.204,1.225,0.204c1.089,0,1.847-0.384,2.275-1.152
				c0.427-0.768,0.642-1.881,0.642-3.34v-1.983h7.729v1.371c0,3.578-0.89,6.314-2.668,8.21
				C219.794,54.812,217.144,55.759,213.625,55.759z M210.622,34.263h5.892v-3.295c0-1.75-0.219-3.004-0.656-3.763
				s-1.211-1.138-2.319-1.138c-1.128,0-1.896,0.428-2.304,1.284s-0.612,2.411-0.612,4.667V34.263z"/>
			<path d="M257.9,55.788c-2.081,0-3.918-0.262-5.513-0.787c-1.595-0.525-2.912-1.254-3.952-2.188
				c-1.04-0.934-1.886-2.09-2.537-3.471c-0.651-1.38-1.108-2.863-1.371-4.448c-0.263-1.584-0.394-3.369-0.394-5.352V22.684
				c0-2.1,0.136-3.961,0.408-5.585c0.272-1.623,0.729-3.13,1.371-4.521s1.482-2.533,2.522-3.427c1.04-0.894,2.353-1.594,3.938-2.1
				c1.585-0.505,3.428-0.758,5.527-0.758c2.411,0,4.473,0.321,6.184,0.962s3.063,1.585,4.054,2.829
				c0.992,1.245,1.711,2.698,2.158,4.361c0.447,1.662,0.671,3.602,0.671,5.818v4.142h-8.487v-4.113c0-2.411-0.127-4.035-0.379-4.871
				c-0.506-1.633-1.74-2.508-3.704-2.625c-0.156,0-0.312,0-0.467,0c-0.739,0-1.386,0.087-1.939,0.262
				c-0.555,0.175-1.007,0.452-1.356,0.832c-0.35,0.379-0.632,0.783-0.846,1.21s-0.375,0.987-0.481,1.677
				c-0.107,0.69-0.175,1.327-0.204,1.911c-0.029,0.583-0.044,1.322-0.044,2.217V41.38c0,2.839,0.354,4.861,1.064,6.067
				c0.71,1.206,1.979,1.808,3.807,1.808c0.622,0,1.171-0.073,1.647-0.219c0.477-0.146,0.875-0.33,1.196-0.554
				c0.321-0.223,0.593-0.544,0.816-0.962c0.224-0.418,0.394-0.807,0.511-1.167c0.116-0.359,0.204-0.86,0.263-1.502
				c0.058-0.642,0.092-1.186,0.102-1.633s0.015-1.06,0.015-1.838v-4.316h8.487v3.967c0,1.808-0.126,3.432-0.379,4.871
				c-0.253,1.439-0.686,2.791-1.298,4.054c-0.612,1.264-1.405,2.314-2.377,3.15c-0.973,0.836-2.217,1.493-3.733,1.968
				C261.663,55.55,259.903,55.788,257.9,55.788z"/>
			<path d="M276.712,55.205V6.847h8.138v17.179c2.722-2.586,5.59-3.879,8.604-3.879c0.816,0,1.55,0.142,2.201,0.423
				s1.187,0.661,1.604,1.137c0.418,0.477,0.768,1.041,1.05,1.692s0.481,1.322,0.599,2.012c0.116,0.69,0.175,1.425,0.175,2.202
				v27.592h-8.138V29.422c0-1.089-0.16-1.896-0.481-2.421c-0.32-0.525-0.929-0.777-1.822-0.758c-1.07,0.02-2.334,0.583-3.792,1.691
				v27.271H276.712z"/>
			<path d="M310.576,55.729c-1.964,0-3.398-0.719-4.302-2.158c-0.904-1.439-1.356-3.208-1.356-5.309V20.672h8.138v25.929
				c0,1.069,0.165,1.867,0.495,2.392c0.331,0.525,0.943,0.778,1.838,0.758c0.952,0,2.119-0.486,3.5-1.458V20.672h8.138v34.533
				h-8.138v-3.237C316.146,54.476,313.375,55.729,310.576,55.729z"/>
		</g>
		<g>
			<path d="M94.281,96.732V71.336h3.538V94.19h6.479v2.542H94.281z"/>
			<path d="M111.391,96.993c-0.99,0-1.83-0.153-2.52-0.46c-0.689-0.306-1.233-0.761-1.631-1.363c-0.398-0.603-0.688-1.3-0.866-2.091
				s-0.268-1.718-0.268-2.779v-5.254c0-1.063,0.089-1.989,0.268-2.781c0.179-0.791,0.468-1.488,0.866-2.09
				c0.397-0.604,0.941-1.058,1.631-1.363c0.689-0.307,1.529-0.46,2.52-0.46c1.91,0,3.268,0.571,4.075,1.716
				c0.806,1.144,1.21,2.803,1.21,4.979V90.3c0,2.174-0.404,3.834-1.21,4.978C114.658,96.421,113.301,96.993,111.391,96.993z
				 M111.391,94.511c0.307,0,0.575-0.045,0.805-0.137s0.411-0.246,0.544-0.46c0.132-0.214,0.239-0.421,0.321-0.62
				s0.141-0.485,0.176-0.857c0.036-0.373,0.057-0.675,0.062-0.904c0.005-0.23,0.008-0.569,0.008-1.019v-5.683
				c0-0.389-0.003-0.68-0.008-0.873c-0.005-0.194-0.018-0.46-0.038-0.797s-0.054-0.595-0.1-0.773s-0.115-0.385-0.207-0.621
				c-0.092-0.234-0.207-0.408-0.345-0.52c-0.138-0.113-0.309-0.213-0.513-0.299c-0.204-0.087-0.439-0.131-0.705-0.131
				s-0.503,0.044-0.712,0.131c-0.209,0.086-0.381,0.186-0.513,0.299c-0.134,0.111-0.248,0.285-0.345,0.52
				c-0.098,0.236-0.169,0.442-0.215,0.621s-0.079,0.437-0.1,0.773s-0.033,0.603-0.038,0.797c-0.006,0.193-0.008,0.484-0.008,0.873
				v5.683c0,0.388,0.002,0.679,0.008,0.873c0.005,0.194,0.018,0.46,0.038,0.796c0.021,0.338,0.054,0.596,0.1,0.773
				c0.046,0.18,0.117,0.384,0.215,0.613c0.097,0.23,0.211,0.403,0.345,0.521c0.132,0.117,0.304,0.217,0.513,0.298
				C110.888,94.471,111.125,94.511,111.391,94.511z"/>
			<path d="M122.099,96.732l-3.585-18.136h3.37l2.236,14.598l2.252-14.598h3.263l-3.432,18.136H122.099z"/>
			<path d="M136.833,96.993c-1.063,0-1.945-0.151-2.65-0.452c-0.704-0.302-1.253-0.771-1.646-1.409s-0.669-1.384-0.827-2.236
				s-0.237-1.902-0.237-3.148v-4.15c0-1.256,0.084-2.315,0.253-3.178c0.168-0.863,0.451-1.609,0.85-2.236
				c0.398-0.629,0.947-1.091,1.646-1.387c0.7-0.297,1.565-0.444,2.597-0.444c0.644,0,1.215,0.062,1.716,0.184
				c0.5,0.122,0.932,0.291,1.294,0.505c0.362,0.215,0.672,0.504,0.927,0.866s0.462,0.745,0.62,1.149
				c0.158,0.402,0.284,0.893,0.376,1.47s0.153,1.151,0.184,1.724s0.046,1.24,0.046,2.006l-0.016,1.471h-7.138v2.42
				c0,0.041,0,0.107,0,0.199c0,0.512,0.002,0.889,0.008,1.134c0.005,0.245,0.025,0.564,0.062,0.958
				c0.035,0.393,0.094,0.686,0.176,0.88s0.193,0.398,0.337,0.612c0.143,0.215,0.329,0.365,0.56,0.453
				c0.229,0.086,0.508,0.129,0.834,0.129c0.726,0,1.218-0.246,1.479-0.742c0.261-0.495,0.391-1.243,0.391-2.244v-1.104h3.278v0.705
				C141.949,95.038,140.243,96.993,136.833,96.993z M134.826,85.903h3.845v-1.639c0-0.48-0.013-0.884-0.038-1.211
				c-0.025-0.326-0.077-0.643-0.153-0.949c-0.077-0.307-0.182-0.547-0.314-0.721c-0.133-0.173-0.313-0.311-0.543-0.413
				c-0.23-0.103-0.509-0.153-0.835-0.153c-0.797,0-1.323,0.286-1.578,0.857c-0.255,0.572-0.383,1.654-0.383,3.248V85.903z"/>
			<path d="M152.473,96.732V71.336h5.515c2.746,0,4.685,0.623,5.813,1.868c1.128,1.246,1.692,3.207,1.692,5.883v9.344
				c0,2.787-0.559,4.868-1.677,6.242c-1.118,1.373-2.975,2.06-5.568,2.06H152.473z M156.011,94.19h1.991
				c0.541,0,1.019-0.055,1.433-0.162c0.413-0.106,0.758-0.234,1.034-0.383c0.275-0.147,0.508-0.385,0.696-0.712
				c0.189-0.327,0.332-0.628,0.43-0.903c0.097-0.275,0.171-0.685,0.222-1.226s0.082-1.003,0.092-1.386
				c0.01-0.384,0.016-0.938,0.016-1.662v-8.256c0-0.613-0.011-1.129-0.031-1.548s-0.061-0.837-0.122-1.256s-0.153-0.761-0.275-1.026
				c-0.123-0.266-0.281-0.518-0.476-0.758c-0.193-0.24-0.434-0.424-0.72-0.552s-0.623-0.228-1.011-0.299
				c-0.389-0.071-0.843-0.106-1.363-0.106h-1.915V94.19z"/>
			<path d="M173.733,96.993c-1.063,0-1.945-0.151-2.65-0.452c-0.704-0.302-1.253-0.771-1.646-1.409s-0.669-1.384-0.827-2.236
				s-0.237-1.902-0.237-3.148v-4.15c0-1.256,0.084-2.315,0.253-3.178c0.168-0.863,0.451-1.609,0.85-2.236
				c0.398-0.629,0.947-1.091,1.646-1.387c0.7-0.297,1.565-0.444,2.597-0.444c0.644,0,1.215,0.062,1.716,0.184
				c0.5,0.122,0.932,0.291,1.294,0.505c0.362,0.215,0.672,0.504,0.927,0.866s0.462,0.745,0.621,1.149
				c0.158,0.402,0.283,0.893,0.375,1.47s0.154,1.151,0.184,1.724c0.031,0.572,0.047,1.24,0.047,2.006l-0.016,1.471h-7.138v2.42
				c0,0.041,0,0.107,0,0.199c0,0.512,0.002,0.889,0.008,1.134c0.005,0.245,0.025,0.564,0.062,0.958
				c0.035,0.393,0.094,0.686,0.176,0.88s0.193,0.398,0.337,0.612c0.143,0.215,0.329,0.365,0.56,0.453
				c0.229,0.086,0.508,0.129,0.834,0.129c0.726,0,1.218-0.246,1.479-0.742c0.261-0.495,0.391-1.243,0.391-2.244v-1.104h3.278v0.705
				C178.849,95.038,177.144,96.993,173.733,96.993z M171.727,85.903h3.845v-1.639c0-0.48-0.013-0.884-0.038-1.211
				c-0.025-0.326-0.077-0.643-0.153-0.949c-0.077-0.307-0.182-0.547-0.314-0.721c-0.133-0.173-0.313-0.311-0.543-0.413
				c-0.23-0.103-0.509-0.153-0.835-0.153c-0.797,0-1.323,0.286-1.578,0.857c-0.255,0.572-0.383,1.654-0.383,3.248V85.903z"/>
			<path d="M186.109,96.993c-1.471,0-2.658-0.463-3.561-1.387c-0.904-0.924-1.422-2.162-1.555-3.715l2.803-0.842
				c0.133,1.174,0.393,2.045,0.781,2.611s0.943,0.85,1.67,0.85c0.602,0,1.092-0.195,1.471-0.589c0.377-0.394,0.551-0.892,0.52-1.493
				c-0.051-0.898-0.541-1.746-1.471-2.543l-3.094-2.65c-0.734-0.623-1.297-1.273-1.686-1.953c-0.387-0.679-0.57-1.503-0.551-2.473
				c0.041-1.42,0.475-2.518,1.303-3.294c0.826-0.776,1.955-1.164,3.385-1.164c1.369,0,2.447,0.446,3.24,1.341
				c0.791,0.893,1.248,2.034,1.371,3.423l-2.268,0.843c-0.133-1.021-0.367-1.801-0.705-2.336c-0.336-0.537-0.842-0.805-1.516-0.805
				c-0.541,0-0.98,0.18-1.318,0.536c-0.336,0.358-0.5,0.797-0.49,1.317c0,0.695,0.301,1.307,0.904,1.838l3.217,2.941
				c0.807,0.705,1.438,1.435,1.891,2.19c0.455,0.756,0.682,1.659,0.682,2.711c0,1.511-0.451,2.663-1.355,3.454
				C188.875,96.597,187.652,96.993,186.109,96.993z"/>
			<path d="M193.845,75.916v-3.522h3.369v3.522H193.845z M193.845,96.732V78.597h3.354v18.136H193.845z"/>
			<path d="M206.435,102.354c-0.652,0-1.225-0.011-1.715-0.031s-1.012-0.064-1.563-0.131s-1.02-0.162-1.402-0.291
				c-0.383-0.127-0.736-0.293-1.064-0.497c-0.326-0.204-0.57-0.462-0.734-0.773s-0.246-0.677-0.246-1.095
				c0-0.94,0.248-1.752,0.744-2.436c0.494-0.685,1.121-1.23,1.877-1.64c-0.572-0.173-1.01-0.437-1.311-0.788
				c-0.301-0.354-0.451-0.744-0.451-1.172c0-0.623,0.158-1.17,0.475-1.64s0.832-1.016,1.547-1.639
				c-0.715-0.552-1.244-1.243-1.586-2.075s-0.514-1.948-0.514-3.348c0-2.113,0.43-3.717,1.287-4.81s2.125-1.639,3.799-1.639
				c1.848,0,3.094,0.664,3.738,1.991c0.152-0.215,0.465-0.518,0.934-0.912c0.471-0.393,0.975-0.711,1.518-0.957l0.52-0.229
				l0.828,2.175c-0.41,0.092-0.984,0.273-1.725,0.544s-1.191,0.473-1.355,0.605c0.154,0.367,0.287,0.886,0.398,1.555
				c0.113,0.669,0.168,1.264,0.168,1.784c0,0.96-0.084,1.811-0.252,2.551s-0.441,1.396-0.818,1.968
				c-0.379,0.572-0.9,1.009-1.563,1.31c-0.664,0.302-1.461,0.452-2.391,0.452c-0.174,0-0.484-0.033-0.934-0.1
				s-0.711-0.109-0.781-0.13c-0.01,0.021-0.057,0.097-0.139,0.229s-0.137,0.229-0.168,0.291s-0.074,0.151-0.131,0.269
				s-0.096,0.225-0.121,0.321c-0.027,0.097-0.039,0.191-0.039,0.283c0,0.235,0.119,0.413,0.359,0.536s0.625,0.209,1.156,0.26
				c0.051,0.011,0.529,0.057,1.434,0.139c0.902,0.082,1.365,0.123,1.385,0.123c2.799,0.266,4.197,1.735,4.197,4.41
				c0,1.625-0.432,2.785-1.293,3.485C209.64,102.004,208.285,102.354,206.435,102.354z M206.39,99.704
				c0.969,0,1.688-0.143,2.152-0.43c0.465-0.285,0.697-0.74,0.697-1.362c0-0.572-0.178-1.001-0.529-1.287s-1.004-0.475-1.953-0.566
				l-2.865-0.229c-0.295,0.244-0.592,0.579-0.887,1.003c-0.297,0.423-0.445,0.876-0.445,1.355c0,0.368,0.088,0.653,0.26,0.858
				c0.174,0.203,0.545,0.364,1.111,0.482C204.498,99.646,205.318,99.704,206.39,99.704z M205.578,88.813
				c0.889,0,1.473-0.314,1.754-0.942s0.422-1.651,0.422-3.071c0-0.561-0.014-1.031-0.039-1.408
				c-0.025-0.379-0.082-0.752-0.168-1.119c-0.088-0.367-0.207-0.658-0.359-0.873c-0.154-0.215-0.361-0.388-0.621-0.521
				s-0.574-0.199-0.941-0.199c-0.879,0-1.469,0.327-1.77,0.98s-0.451,1.7-0.451,3.14c0,0.501,0.014,0.935,0.045,1.303
				c0.031,0.367,0.092,0.73,0.184,1.087c0.092,0.358,0.217,0.649,0.375,0.873c0.158,0.226,0.369,0.406,0.629,0.544
				S205.21,88.813,205.578,88.813z"/>
			<path d="M214.447,96.732V78.597h3.354v1.792c1.43-1.358,2.906-2.037,4.428-2.037c0.51,0,0.951,0.106,1.324,0.321
				s0.656,0.508,0.85,0.881c0.195,0.373,0.332,0.764,0.414,1.172s0.123,0.854,0.123,1.332v14.675h-3.355V83.038
				c0-0.693-0.102-1.209-0.305-1.547c-0.205-0.336-0.582-0.506-1.135-0.506c-0.674,0-1.455,0.373-2.344,1.119v14.628H214.447z"/>
			<path d="M228.064,96.732v-3.722h3.369v3.722H228.064z"/>
		</g>
		<path fill-rule="evenodd" clip-rule="evenodd" d="M10.284,54.502c-2.381-5.887-0.695-10.253,4.166-13.539
			c-0.527-0.588-1.018-1.186-1.559-1.732c-1.736-1.755-3.545-3.442-5.229-5.247c-4.734-5.076-3.92-11.578,1.877-15.389
			c0.219-0.144,0.416-0.316,0.676-0.514c-0.51-1.113-1.061-2.151-1.471-3.242C6.258,8.228,10.151,1.208,16.911,0.122
			c2.756-0.442,5.211,0.355,7.363,2.078c0.645,0.515,1.117,0.826,1.924,0.16c6.893-5.678,15.637-0.218,16.826,6.927
			c0.174,1.048,0.252,2.11,0.367,3.094c1.865,0.376,3.689,0.581,5.406,1.124c3.602,1.142,4.408,3.045,2.982,6.52
			c-3.689,8.988-4.314,18.205-1.918,27.603c0.348,1.363,1.141,2.621,1.791,3.896c1.531,2.998,3.313,5.889,4.598,8.985
			c1.604,3.863,3.516,7.455,6.398,10.516c1.877,1.992,3.684,4.053,5.441,6.148c1.49,1.775,1.422,3.162-0.188,4.84
			c-8.619,8.99-17.248,17.967-25.893,26.932c-1.881,1.951-3.461,1.957-5.395,0.008c-1.627-1.637-3.188-3.34-4.727-5.059
			c-2.893-3.227-6.344-5.705-10.449-7.008c-7.775-2.471-13.686-7.49-18.916-13.445c-4.121-4.691-3.063-11.188,2.23-14.588
			c0.643-0.414,1.037-0.678,0.711-1.613c-1.863-5.357-0.471-9.275,4.254-12.299C9.895,54.828,10.049,54.684,10.284,54.502z
			 M39.004,101.743c0.152-0.127,0.5-0.367,0.787-0.666c6.777-7.039,13.533-14.098,20.336-21.111
			c0.889-0.916,0.832-1.518-0.029-2.379c-5.008-5.012-8.623-10.84-11.078-17.541c-1.072-2.928-3.039-5.745-5.227-8.01
			c-8.688-8.995-17.619-17.756-26.471-26.592c-1.5-1.498-3.541-1.588-4.879-0.29c-1.377,1.339-1.322,3.296,0.139,4.858
			c0.293,0.314,0.598,0.617,0.902,0.921c8.352,8.352,16.707,16.701,25.053,25.061c0.564,0.566,1.135,1.158,1.563,1.828
			c0.814,1.277,0.588,2.815-0.457,3.835c-1.041,1.016-2.576,1.186-3.834,0.293c-0.779-0.557-1.461-1.26-2.145-1.939
			c-3.922-3.899-7.818-7.823-11.748-11.716c-1.648-1.633-3.568-1.715-4.967-0.287c-1.4,1.432-1.287,3.309,0.35,4.967
			c2.301,2.33,4.635,4.629,6.943,6.95c2.158,2.17,4.346,4.313,6.43,6.549c1.146,1.23,1.078,2.963,0.055,4.111
			c-1.119,1.258-2.711,1.412-4.199,0.357c-0.521-0.367-0.982-0.83-1.438-1.283c-2.586-2.576-5.17-5.156-7.736-7.752
			c-1.027-1.037-2.197-1.545-3.639-1.063c-2.438,0.814-3.039,3.646-1.145,5.59c2.695,2.77,5.465,5.469,8.174,8.227
			c1.945,1.982,2.162,3.77,0.711,5.188c-1.414,1.381-3.227,1.119-5.199-0.787c-1.311-1.27-2.535-2.635-3.898-3.842
			c-1.428-1.266-3.256-1.152-4.494,0.115c-1.271,1.301-1.295,3.242-0.014,4.643c4.252,4.652,8.98,8.553,15.152,10.525
			c4.451,1.42,8.277,4.035,11.678,7.25C36.077,99.073,37.502,100.36,39.004,101.743z M26.508,26.534
			c0.598-0.942,0.797-1.188,0.924-1.466c1.383-3.003,3.234-5.653,5.607-7.976c1.02-0.998,2.01-2.166,2.576-3.449
			c0.531-1.207,0.811-2.711,0.635-4.008c-0.377-2.797-3.41-3.787-5.447-1.817c-0.85,0.821-1.412,1.99-1.939,3.081
			c-1.102,2.273-3.469,2.826-5.246,1.036c-0.652-0.657-1.096-1.567-1.496-2.427c-0.957-2.049-1.994-2.814-3.754-2.615
			c-1.787,0.203-3.039,1.498-3.449,3.515c-0.494,2.429,0.604,4.315,2.166,5.94c2.561,2.664,5.254,5.201,7.842,7.843
			C25.514,24.792,25.889,25.602,26.508,26.534z M44.467,19.263c-1.391,0.398-2.295,0.548-3.107,0.908
			c-4.684,2.074-7.191,5.949-8.564,10.675c-0.137,0.474,0.176,1.276,0.551,1.667c2.455,2.555,4.98,5.041,7.498,7.534
			c0.193,0.191,0.504,0.262,1.014,0.515C41.155,33.292,42.223,26.453,44.467,19.263z"/>
	</g>
</g>
</svg>
